<svg aria-hidden="true" style="width:0;height:0;position:absolute;overflow:hidden" xmlns="http://www.w3.org/2000/svg"><defs><symbol id="icon-instagram" viewBox="0 0 32 32"><path d="M17.371 2.668c.973-.004 1.946.006 2.919.029l.259.009c.299.011.593.024.949.04 1.419.067 2.387.291 3.236.62a6.49 6.49 0 0 1 2.363 1.539 6.543 6.543 0 0 1 1.537 2.361c.329.849.553 1.819.62 3.237.016.355.029.651.04.949l.008.259c.024.972.034 1.945.031 2.917l.001.995v1.747c.003.973-.007 1.946-.031 2.919l-.008.259c-.011.299-.024.593-.04.949-.067 1.419-.293 2.387-.621 3.236a6.516 6.516 0 0 1-1.537 2.363 6.55 6.55 0 0 1-2.363 1.537c-.849.329-1.817.553-3.236.62-.356.016-.651.029-.949.04l-.259.008c-.973.024-1.946.034-2.919.031l-2.74.001c-.973.003-1.946-.007-2.919-.031l-.259-.008a98.944 98.944 0 0 1-.949-.04c-1.419-.067-2.387-.293-3.237-.621a6.513 6.513 0 0 1-2.361-1.537 6.534 6.534 0 0 1-1.539-2.363c-.329-.849-.553-1.817-.62-3.236-.015-.316-.028-.633-.04-.949l-.007-.259a101.46 101.46 0 0 1-.033-2.919v-2.741c-.004-.973.006-1.945.029-2.917l.009-.259c.011-.299.024-.595.04-.949.067-1.42.291-2.387.62-3.237a6.506 6.506 0 0 1 1.541-2.36 6.525 6.525 0 0 1 2.36-1.54c.851-.329 1.817-.553 3.237-.62l.949-.04.259-.007c.972-.025 1.945-.036 2.917-.033l2.741.001zM16 9.335c-.883-.012-1.76.151-2.58.48s-1.566.818-2.195 1.439A6.666 6.666 0 0 0 16 22.667a6.67 6.67 0 0 0 4.714-11.381A6.666 6.666 0 0 0 16 9.335zm0 2.666a3.99 3.99 0 0 1 2.876 1.145A3.988 3.988 0 0 1 20.074 16a4.014 4.014 0 0 1-1.197 2.855A3.999 3.999 0 0 1 16.002 20a4.003 4.003 0 0 1-4-4 4.003 4.003 0 0 1 4-4l-.001.001zm7-4.666a1.669 1.669 0 0 0 0 3.332 1.667 1.667 0 0 0 0-3.333v.003z"/></symbol><symbol id="icon-facebook" viewBox="0 0 32 32"><path d="M21.329 5.313h2.921V.225C23.746.156 22.013 0 19.994 0c-4.212 0-7.097 2.649-7.097 7.519V12H8.249v5.688h4.648V32h5.699V17.689h4.46l.708-5.688h-5.169V8.082c.001-1.644.444-2.769 2.735-2.769z"/></symbol><symbol id="icon-tiktok" viewBox="0 0 32 32"><path d="M21.333 10.993v9.673a8.671 8.671 0 0 1-11.094 8.318 8.666 8.666 0 0 1 4.428-16.753v4.217a4.672 4.672 0 0 0-5.493 1.122 4.667 4.667 0 1 0 8.159 3.094v-18h4A6.67 6.67 0 0 0 28 9.331v4a10.62 10.62 0 0 1-6.667-2.34z"/></symbol><symbol id="icon-youtube" viewBox="0 0 32 32"><path d="M16.325 5.333c.712.004 2.493.021 4.387.097l.672.029c1.905.089 3.809.244 4.755.507 1.26.355 2.249 1.387 2.584 2.696.533 2.08.6 6.136.608 7.119l.001.203v.232c-.009.983-.076 5.04-.609 7.119-.339 1.313-1.329 2.347-2.584 2.696-.945.263-2.849.417-4.755.507l-.672.031a133.42 133.42 0 0 1-4.387.096l-.313.001h-.34c-1.507-.009-7.808-.077-9.813-.635-1.259-.355-2.249-1.387-2.584-2.696-.533-2.08-.6-6.136-.608-7.119v-.435c.008-.983.075-5.04.608-7.119.339-1.313 1.329-2.347 2.585-2.695 2.004-.559 8.307-.627 9.813-.635h.652zm-2.993 6v9.333l8-4.667-8-4.667z"/></symbol></defs></svg>